# xmcd CD database file generated by Grip 2.94
# 
# Track frame offsets:
#       150
#       17110
#       38710
#       54827
#       70311
#       88863
#       106787
#       125549
#       142944
#       149626
#       165130
#       182166
#       197905
#       215830
#       229177
#       249186
# 
# Disc length: 3374 seconds
# 
# Revision: 3
# Processed by: cddbd v1.4b41PL1 Copyright (c) Steve Scherf et al.
# Submitted via: Grip 2.94
# 
DISCID=df0d2c10
DTITLE=Kirmes - Summer Games
DYEAR=1900
DGENRE=
TTITLE0=Rumble in der Old-School-Disco
TTITLE1=Tanzcafe
TTITLE2=Detektive der Popkultur
TTITLE3=Corvette Deluxe
TTITLE4=Bipolar (Karate gegen Boxen)
TTITLE5=Jazz Hollywood
TTITLE6=Soda Club
TTITLE7=Monza
TTITLE8=Phone Raider
TTITLE9=Servus Mr Luhmann
TTITLE10=Der Supertyp
TTITLE11=Marsmodulator
TTITLE12=UV-Charleston
TTITLE13=Goonies
TTITLE14=Bonus Dreck
TTITLE15=Daten Dreck
EXTD=
EXTT0=
EXTT1=
EXTT2=
EXTT3=
EXTT4=
EXTT5=
EXTT6=
EXTT7=
EXTT8=
EXTT9=
EXTT10=
EXTT11=
EXTT12=
EXTT13=
EXTT14=
EXTT15=
PLAYORDER=
